<?xml version="1.0" standalone="no"?><!DOCTYPE svg PUBLIC "-//W3C//DTD SVG 1.1//EN" "http://www.w3.org/Graphics/SVG/1.1/DTD/svg11.dtd"><svg t="1649995681381" class="icon" viewBox="0 0 1024 1024" version="1.1" xmlns="http://www.w3.org/2000/svg" p-id="992" xmlns:xlink="http://www.w3.org/1999/xlink" width="16" height="16"><defs><style type="text/css">@font-face { font-family: feedback-iconfont; src: url("//at.alicdn.com/t/font_1031158_u69w8yhxdu.woff2?t=1630033759944") format("woff2"), url("//at.alicdn.com/t/font_1031158_u69w8yhxdu.woff?t=1630033759944") format("woff"), url("//at.alicdn.com/t/font_1031158_u69w8yhxdu.ttf?t=1630033759944") format("truetype"); }
</style></defs><path d="M512 992C246.896 992 32 777.104 32 512 32 246.896 246.896 32 512 32c265.104 0 480 214.896 480 480 0 265.104-214.896 480-480 480z m16.00000031-387.67999969c32.67199969 4.08 64.48000031 4.8 96.31999969 1.968 21.6-1.92 42.01600031-7.84000031 60.16000031-20.544 35.82400031-25.12000031 46.67200031-79.872 22.73599969-115.36000031-13.71199969-20.352-34.512-28.44799969-56.95999969-33.28000031-32.86399969-7.07200031-66.048-5.39200031-99.23200031-3.19999969-5.31199969 0.336-6.336 2.88-6.78400031 7.69600031-2.88 30.64000031-6.12799969 61.23199969-9.19999969 91.83999938-2.352 23.26399969-4.62400031 46.52800031-7.03999969 70.88000062z m50.064-31.80800062c1.84000031-19.60000031 3.408-36.88000031 5.088-54.15999938 1.45600031-14.91199969 3.19999969-29.79199969 4.43199938-44.72000062 0.336-4.01599969 1.45600031-6.24 5.58400031-5.98399969 14.64 0.97600031 29.72800031 0.03199969 43.80799969 3.42400031 34.20799969 8.27200031 45.67999969 50.91199969 21.888 77.83999969-14.832 16.78399969-34.464 22.11199969-55.55199938 23.52-7.93600031 0.51199969-15.95200031 0.07999969-25.248 0.07999969zM512 439.15200031c-2.04799969-0.60799969-3.312-1.104-4.62400031-1.344-35.35999969-6.44800031-70.96000031-7.80799969-106.54399969-2.64-19.66399969 2.84800031-38.448 8.89600031-53.88799969 21.87199969-21.552 18.11200031-20.28799969 43.92 4.128 58.128 12.24 7.12000031 26.27200031 11.72800031 39.936 16.20799969 13.2 4.32 27.18400031 6.40000031 40.44799969 10.56 11.808 3.67999969 13.13599969 13.42399969 3.36 20.91200062-3.13600031 2.4-6.97600031 4.76800031-10.81600031 5.39199938-10.49599969 1.71199969-21.28000031 4.11199969-31.71199969 3.34400062-22.59199969-1.66399969-45.04000031-5.11999969-68.016-7.90400062-1.27999969 9.95200031-2.75200031 21.648-4.272 33.696 3.91999969 1.27999969 7.2 2.56000031 10.56 3.39200062 31.824 7.968 64.11199969 9.00799969 96.48 4.8 18.83200031-2.448 37.008-7.40800031 53.15200031-17.84000062 26.81599969-17.328 34.39999969-53.616-4.38400031-70.67199938-13.60000031-5.98399969-28.30399969-9.76000031-42.64000031-14.14400062-10.704-3.264-21.85600031-5.26399969-32.36799938-8.928-9.168-3.19999969-10.44799969-11.44000031-2.84800031-17.24799938 4.368-3.32800031 10.04800031-6.55999969 15.36-6.912a450.79999969 450.79999969 0 0 1 50.04799969-0.80000062c14.41600031 0.65599969 28.73599969 3.32800031 43.584 5.184L512 439.15200031z m241.07200031 1.92L735.99999969 607.904h50.76800062c4.48000031-42.78400031 9.10399969-85.056 13.18399969-127.392 0.576-5.96800031 2.208-8.28799969 8.14399969-8.448 10.72000031-0.25600031 21.456-1.85599969 32.14400062-1.47199969 22.24000031 0.79999969 39.744 9.12 36 40.56-2.71999969 22.752-5.24800031 45.53599969-7.728 68.31999938-1.02400031 9.43999969-1.71199969 18.92800031-2.56000031 28.512h51.87199969c3.36-33.05599969 7.488-65.68000031 9.84-98.43199969 3.19999969-44.496-16.656-68.736-60.63999938-75.19999969-38.4-5.63200031-76.25599969-0.31999969-113.952 6.68799938z m-453.28000031 126.192c-8.19199969 1.21600031-15.36 2.62399969-22.59199969 3.264-24.048 2.09599969-48.11200031 3.696-71.53600031-4.00000031-13.03999969-4.30399969-23.136-11.79199969-27.936-24.336-7.40800031-19.40800031 0.83200031-44.16 18.59200031-56.544 16.28800031-11.35999969 35.35999969-14.928 54.79999969-14.928 21.13600031-0.01600031 42.27199969 2.27200031 63.96799969 3.6L320 437.28000031c-14.12800031-1.61599969-27.648-3.67999969-41.24800031-4.608-38.448-2.62399969-75.6 2.448-110.12799938 19.18399969-28.14400031 13.64800031-48.79999969 33.76000031-55.008 63.87199969-7.36000031 35.76 10.81600031 65.15200031 48.528 80.48000062 17.952 7.27999969 36.83200031 11.72800031 56.256 11.808 23.20000031 0.096 46.39999969-1.47199969 69.56799938-2.76800062 2.91199969-0.16000031 7.79200031-2.71999969 8.12800031-4.71999938 1.85599969-10.83199969 2.56000031-21.82399969 3.696-33.24800062z" fill="#DD1700" p-id="993"></path></svg>