<?xml version="1.0" standalone="no"?><!DOCTYPE svg PUBLIC "-//W3C//DTD SVG 1.1//EN" "http://www.w3.org/Graphics/SVG/1.1/DTD/svg11.dtd"><svg t="1649898031166" class="icon" viewBox="0 0 1024 1024" version="1.1" xmlns="http://www.w3.org/2000/svg" p-id="832" xmlns:xlink="http://www.w3.org/1999/xlink" width="32" height="32"><defs><style type="text/css">@font-face { font-family: feedback-iconfont; src: url("//at.alicdn.com/t/font_1031158_u69w8yhxdu.woff2?t=1630033759944") format("woff2"), url("//at.alicdn.com/t/font_1031158_u69w8yhxdu.woff?t=1630033759944") format("woff"), url("//at.alicdn.com/t/font_1031158_u69w8yhxdu.ttf?t=1630033759944") format("truetype"); }
</style></defs><path d="M243.42627001 62.01048096l1.04812471 899.29076924" fill="#2c2c2c" p-id="833"></path><path d="M134.50867255 62.02096279l16.76999092-0.02096279 1.22281172 899.29076924-16.76999092 0.02096279z" fill="#2c2c2c" p-id="834"></path><path d="M151.27866347 62.02096279l16.76999092-0.02096279 1.22281172 899.29076924-16.76999092 0.02096279z" fill="#2c2c2c" p-id="835"></path><path d="M168.04865439 62.02096279l16.76999092-0.02096279 1.22281172 899.29076924-16.76999092 0.02096279z" fill="#2c2c2c" p-id="836"></path><path d="M184.8186453 62.02096279l16.76999093-0.02096279 1.22281172 899.29076924-16.76999092 0.02096279z" fill="#2c2c2c" p-id="837"></path><path d="M201.58863623 62.02096279l16.76999091-0.02096279 1.2228126 899.29076924-16.76999179 0.0209628z" fill="#2c2c2c" p-id="838"></path><path d="M218.35862714 62.02096279l16.7699918-0.02096279 1.22281172 899.29076924-16.76999093 0.02096279z" fill="#2c2c2c" p-id="839"></path><path d="M235.12861894 62.02096279l16.76999092-0.02096279 1.22281171 899.29076924-16.7699909 0.02096279z" fill="#2c2c2c" p-id="840"></path><path d="M251.89860986 62.02096279l16.76999092-0.02096279 1.22281172 899.29076924-16.76999093 0.02096279z" fill="#2c2c2c" p-id="841"></path><path d="M268.66860078 62.02096279l16.76999092-0.02096279 1.22281172 899.29076924-16.76999092 0.02096279z" fill="#2c2c2c" p-id="842"></path><path d="M285.4385917 62.02096279l16.76999091-0.02096279 1.22281172 899.29076924-16.76999091 0.02096279z" fill="#2c2c2c" p-id="843"></path><path d="M302.20858261 62.02096279l16.76999092-0.02096279 1.22281172 899.29076924-16.76999092 0.02096279zM335.74856445 62.02096279l16.76999092-0.02096279 1.2228126 899.29076924-16.76999094 0.02096279z" fill="#2c2c2c" p-id="844"></path><path d="M318.97857353 62.02096279l16.76999092-0.02096279 1.22281258 899.29076924-16.76999178 0.0209628z" fill="#2c2c2c" p-id="845"></path><path d="M920.51465849 439.68465459c-3.84312305-23.75748721-9.78249463-47.16559951-17.11936582-70.22433778-15.02311729-45.76810078-38.08185469-89.09057724-66.73058964-127.52180684-14.32436748-19.21561435-30.39560859-37.38310487-47.86434932-53.80372091-17.46874071-16.76999092-35.98560615-32.14248311-55.89997032-45.76810078-19.91436416-13.62561767-40.87685302-25.85373575-62.53809169-36.33498018-21.66123867-10.48124443-44.37060117-18.86624033-67.77871348-25.85373662-11.52936914-3.49374815-23.4081123-6.28874649-35.28685634-8.73436991-11.87874404-2.09624854-23.75748721-4.54187285-35.63623038-5.58999757l-9.08374571-1.04812382-9.08374482-0.69874981c-5.93937158-0.3493749-11.87874404-1.04812471-18.16749052-1.0481247L477.15802079 62.70923076 134.77070352 62.70923076 134.77070352 79.47922169l219.05800751-0.34937492 123.67868379 0 17.46874073 0.34937492c5.93937158 0 11.52936914 0.69874981 17.46874071 1.04812469l8.73437081 0.69874981 8.73436992 1.04812383c11.52936915 1.39749961 23.05873739 3.49374815 34.23873164 5.58999756 11.17999424 2.44562343 22.7093625 5.24062178 33.88935674 8.38499502 22.35998848 6.63812138 44.02122627 14.67374238 64.98371601 24.8056119 20.96248886 10.13186954 41.22622793 21.66123867 60.09246738 34.93748146 19.21561435 13.27624277 37.03372997 27.94998516 53.80372179 44.02122627 16.76999092 16.07124112 32.1424831 33.53998185 46.1174748 52.05684727 27.60061026 37.03372998 49.96059785 78.60933281 64.28496533 122.97993398 7.33687119 22.01061357 12.92686787 44.71997607 16.76999179 67.77871435 3.49374815 23.05873739 5.58999668 46.11747568 5.58999668 69.17621309 0 23.05873739-2.09624854 46.11747568-5.58999668 69.17621309-3.49374815 23.05873739-9.43311972 45.41872588-16.76999179 67.77871347-14.32436748 44.37060117-36.68435508 85.59682911-64.28496533 122.97993398-13.97499258 18.51686542-29.34748388 35.98560615-46.1174748 52.05684727-16.76999092 16.07124112-34.58810654 30.7449835-53.80372179 44.02122627-19.21561435 13.27624277-39.1299794 24.80561191-60.09246738 34.93748144-20.96248886 10.13186954-42.97310244 18.16749052-64.98371601 24.80561193-11.17999424 3.49374815-22.35998848 5.93937158-33.88935674 8.38499589-11.52936915 2.09624854-22.7093625 4.19249795-34.23873164 5.58999668l-8.73436992 1.04812471-8.73437081 0.69874892c-5.93937158 0.3493749-11.52936914 1.04812471-17.46874071 1.0481247l-17.11936583 0.34937491L354.52746084 944.88063418l-219.05800752 0.3493749 0 16.76999092 219.05800752-0.34937491 123.32930888 1e-8 17.81811563-0.34937491c5.93937158 0 11.87874404-0.69874981 17.81811562-1.04812383l9.08374482-0.69874979 9.08374571-1.04812472c11.87874404-1.39749961 23.75748721-3.49374815 35.63623037-5.58999667 11.87874404-2.79499834 23.4081123-5.24062178 35.28685635-8.7343708 23.0587374-6.63812138 45.76810078-15.37249219 67.77871348-25.85373575 21.66123867-10.48124443 42.62372754-22.7093625 62.53809169-36.33498106 19.91436416-13.62561767 38.43122959-28.99810987 55.89997032-45.76809989 17.46874071-16.76999092 33.53998185-34.58810654 47.86434931-53.80372179 28.64873497-38.7806045 51.70747237-81.75370605 66.73058965-127.52180682 7.68624609-23.0587374 13.62561767-46.46685058 17.11936582-70.22433692 3.84312305-23.75748721 5.58999668-47.86434932 5.93937159-71.9712123-0.3493749-25.15498682-2.44562343-49.26184893-5.93937159-73.01933526z" fill="#2c2c2c" p-id="846"></path><path d="M887.32405068 444.92527636c-3.49374815-22.01061357-9.08374482-43.67185136-16.07124111-64.98371513-13.97499258-42.62372754-35.28685635-82.45245586-61.8393419-118.08868711-13.27624277-17.81811563-28.29936006-34.58810654-44.37060116-49.96059785s-33.19060693-29.69685879-51.70747237-42.27435264c-18.51686543-12.57749297-37.73247979-23.75748721-57.64684395-33.53998183-20.26373906-9.78249463-41.22622793-17.46874071-62.5380917-23.75748721-10.83061934-3.14437324-21.66123867-5.58999668-32.49185801-8.035621-10.83061934-2.09624854-22.01061357-4.19249795-33.19060693-5.24062177l-8.38499589-1.04812471-8.38499503-0.69874981c-5.58999668-0.3493749-11.17999424-1.04812471-16.76999091-1.0481247l-16.76999093-0.34937491L353.47933613 95.8998377 135.12007842 96.2492126l0 16.76999181 219.05800752-0.34937492 123.32930888 0 16.07124199 0.34937492c5.24062178 0 10.83061934 0.69874981 16.07124112 1.04812381l8.03562099 0.6987498 8.03562012 1.04812471c10.48124443 1.04812471 21.31186377 3.14437324 31.7931082 4.89124688 10.48124443 2.44562343 20.96248886 4.54187285 31.0943584 7.68624609 20.61311396 5.93937158 40.52747813 13.62561767 60.09246827 22.7093625 19.21561435 9.43311972 37.73247979 19.91436416 55.55059541 32.14248311 17.81811563 12.22811807 34.23873164 25.85373575 49.61122295 40.52747812 15.37249219 14.67374238 29.69685879 30.74498349 42.62372753 47.86434932 25.50436172 34.23873164 46.11747569 72.66996123 59.39371846 113.19744023 6.63812138 20.26373906 12.22811807 41.22622793 15.3724913 62.1887168 3.49374815 21.31186377 4.89124775 42.62372754 5.24062266 63.93559043 0 21.31186377-1.74687364 42.62372754-5.24062265 63.93559044-3.14437324 21.31186377-8.73436992 41.92497773-15.37249131 62.1887168-13.27624277 40.87685302-33.88935674 78.95870771-59.39371846 113.19743936-12.92686787 17.11936582-27.25123535 33.19060693-42.62372754 47.86435018-15.37249219 14.67374238-31.7931082 28.64873497-49.61122295 40.52747814-17.46874071 12.22811807-36.33498018 23.0587374-55.5505954 32.14248221-19.21561436 9.08374482-39.4793543 16.76999092-60.09246827 22.70936339-10.13186953 3.14437324-20.61311396 5.58999668-31.0943584 7.68624608-10.48124442 2.09624854-20.96248886 3.84312304-31.79310821 4.89124688l-8.03562011 1.04812471-8.035621 0.6987498c-5.24062178 0.34937489-10.83061934 1.04812471-16.07124111 1.04812383l-16.07124199 0.3493749L354.52746083 909.24440293 135.12007842 910.99127744l0 16.76999092 219.05800752-0.3493749 123.32930888 0 16.7699918-0.3493749c5.58999668 0 11.17999424-0.69874981 16.76999091-1.04812471l8.38499504-0.69874893 8.38499588-1.04812471c11.17999424-1.04812471 22.01061357-3.14437325 33.19060694-5.24062265 10.83061934-2.44562343 21.66123867-4.89124775 32.491858-8.03562012 21.31186377-6.28874649 42.27435263-13.97499258 62.5380917-23.75748721 20.26373906-9.78249463 39.4793543-20.96248886 57.64684396-33.53998271 18.51686543-12.57749297 35.63623125-26.90186045 51.70747236-42.27435175 16.07124112-15.37249219 30.7449835-32.1424831 44.37060117-49.96059874 26.55248555-35.63623125 47.86434932-75.46495957 61.83934189-118.08868622 6.98749628-21.31186377 12.57749297-42.97310243 16.07124111-64.98371602 3.49374815-22.01061357 5.24062178-44.37060117 5.24062267-66.38121387-0.34937489-22.7093625-2.09624854-44.71997607-5.58999757-67.07996455z" fill="#2c2c2c" p-id="847"></path><path d="M854.13344375 450.51527393c-3.14437324-20.26373906-8.38499589-40.17810323-14.67374238-59.74309336-12.92686787-39.1299794-32.49185801-75.81433447-56.94809415-108.65556739-49.26184893-65.33309003-119.83556074-114.94431386-198.79426846-137.65367636-9.78249463-3.14437324-19.91436416-5.24062178-29.69685966-7.33687031-10.13186953-1.74687364-20.26373906-3.84312305-30.3956086-4.89124776l-7.68624609-1.04812471-7.68624521-0.69874979c-5.24062178-0.34937489-10.13186953-1.04812471-15.37249219-1.04812384l-15.37249219-0.34937491L354.17808594 129.09044551l-219.05800752 0.6987498 0 16.76999092 219.05800752-0.34937489 123.32930888 0 14.67374239 0.34937489c4.89124775 0 9.78249463 0.69874981 14.67374238 1.04812383l7.3368712 0.69874981 7.33687118 1.0481247c9.78249463 1.04812471 19.21561435 2.79499834 28.99810898 4.54187285 9.43311972 2.09624854 19.21561435 4.19249795 28.64873497 6.9874963 75.46495957 21.66123867 142.89429903 68.82683819 190.05989852 131.36492899 23.4081123 31.4437333 42.27435263 66.38121474 54.50247072 103.76431963 6.28874649 18.51686542 11.17999424 37.73247979 13.97499257 56.94809503 3.14437325 19.21561435 4.54187285 38.7806045 4.89124688 58.69496865 0 19.56498925-1.74687364 39.1299794-4.89124688 58.69496865-3.14437325 19.21561435-8.03562099 38.43122959-13.97499257 56.94809414-12.22811807 37.38310487-31.0943584 72.32058633-54.50247072 103.76431963-47.16559951 62.53809169-114.59493895 110.05306612-190.05989853 131.36492989-9.43311972 2.79499834-18.86624033 4.89124775-28.64873496 6.98749628-9.78249463 1.74687364-19.21561435 3.49374815-28.99810898 4.54187286l-7.33687118 1.04812382-7.3368712 0.6987498c-4.89124775 0.3493749-9.78249463 1.04812471-14.6737424 1.04812471l-14.67374237 0.3493749L354.17808594 877.1019207l-219.05800752 0.34937489 0 16.76999093 219.05800752-0.34937491 122.97993485 1e-8 15.37249132-0.34937491c5.24062178 0 10.13186953-0.69874981 15.37249218-1.0481247l7.68624522-0.6987498 7.68624608-1.04812383c10.13186953-1.04812471 20.26373906-3.14437324 30.39560861-4.89124775 10.13186953-2.09624854 19.91436416-4.54187285 29.69685967-7.3368712 78.95870771-22.7093625 149.53242041-71.97121143 198.79426845-137.65367636 24.45623701-32.84123204 44.02122627-69.52558799 56.94809413-108.6555665 6.28874649-19.56498926 11.52936914-39.4793543 14.67374239-59.74309337 3.14437324-20.26373906 4.89124775-40.87685302 4.89124776-61.14059207 0.3493749-20.26373906-1.39749961-40.52747813-4.54187285-60.7912172z" fill="#2c2c2c" p-id="848"></path><path d="M820.94283681 455.7558957c-2.79499834-18.51686542-7.68624609-36.68435508-13.27624277-54.5024707-11.52936914-35.63623126-29.69685879-68.82683819-51.70747237-98.87307187-45.06935097-59.74309337-109.35431631-104.81244434-181.32552861-125.42555831-9.08374482-2.79499834-18.16749052-4.89124775-27.25123535-6.98749628-9.08374482-1.74687364-18.51686542-3.49374815-27.60061025-4.54187285l-6.98749629-1.04812384-6.98749629-0.6987498c-4.54187285-0.34937489-9.43311972-1.04812471-13.97499258-1.04812471l-13.97499258-0.3493749L354.52746083 162.28105244 135.12007842 163.32917714l0 16.76999093 219.05800752-0.34937491 123.32930888 0 13.27624365 0.34937491c4.54187285 0 8.73436992 0.69874981 13.27624278 0.6987498l6.63812138 0.3493749 6.63812139 0.69874981c8.73436992 1.04812471 17.46874071 2.79499834 26.20311065 4.19249706 8.73436993 2.09624854 17.46874071 3.84312304 25.85373662 6.63812141 68.47746327 19.56498926 129.96743028 62.5380917 172.59115781 119.48618672 21.31186377 28.64873497 38.43122959 60.44184229 49.26184804 94.33119901 5.58999668 16.76999092 10.13186953 34.23873165 12.92686875 51.70747236 2.79499834 17.46874071 4.19249795 35.28685635 4.19249708 53.10497199s-1.39749961 35.63623125-4.19249708 53.10497108c-2.79499834 17.46874071-7.33687119 34.93748144-12.92686875 51.70747236-11.17999424 33.88935674-28.29936006 65.68246494-49.26184804 94.33119992-42.97310244 56.94809414-104.11369453 99.92119658-172.59115783 119.48618582-8.38499589 2.44562343-17.11936582 4.54187286-25.8537366 6.63812139-8.73436993 1.39749961-17.46874071 3.14437325-26.20311065 4.19249794l-6.63812139 0.69874981-6.63812138 0.3493749c-4.54187285 0.34937489-8.73436992 0.69874981-13.27624278 0.69874982l-13.27624365 0.34937489L354.17808594 842.86318906l-219.05800752 0.34937403 0 16.76999179 219.05800752-0.3493749 123.32930888 0 13.97499258-0.3493749c4.54187285 0 9.43311972-0.69874981 13.97499258-1.04812471l6.98749628-0.6987498 6.98749629-1.04812383c9.43311972-1.04812471 18.51686542-2.79499834 27.60061026-4.54187286 9.08374482-2.09624854 18.16749052-4.19249795 27.25123534-6.98749628 71.97121143-20.61311396 136.60555166-65.68246494 181.32552862-125.4255583 22.35998848-30.04623369 40.17810323-63.23684151 51.70747237-98.87307188 5.93937158-17.81811563 10.48124443-35.98560615 13.27624277-54.50247069 2.79499834-18.51686542 4.54187285-37.03372997 4.54187286-55.89997032 0.34937489-17.46874071-1.04812471-35.98560615-4.19249796-54.50247071z" fill="#2c2c2c" p-id="849"></path><path d="M787.752229 460.99651748c-2.44562343-16.76999092-6.98749628-33.19060693-12.22811806-49.26184805-10.48124443-32.14248311-26.90186045-62.1887168-46.81622461-89.43995214C688.18040731 268.1416206 629.83481357 227.26476758 564.85109845 208.74790302c-8.03562099-2.44562343-16.42061602-4.19249795-24.45623703-6.28874648-8.38499589-1.39749961-16.76999092-3.14437324-25.15498681-3.84312306l-6.28874649-0.69874979-6.28874648-0.3493749c-4.19249795-0.3493749-8.38499589-0.69874981-12.57749296-0.69874981l-12.57749386-0.34937491L354.17808594 196.51978409l-219.05800752 0.34937489 0 16.76999092 219.05800752-0.34937491 122.97993485 1e-8 11.87874317 0.3493749c3.84312304 0 8.03562099 0.69874981 11.87874404 0.69874981l5.93937159 0.3493749 5.93937158 0.69874981c8.03562099 0.69874981 15.72186621 2.44562343 23.7574872 3.84312305 7.68624609 1.74687364 15.72186621 3.49374815 23.40811319 5.93937157 61.48996699 17.46874071 116.6911875 56.24934521 155.12241621 107.25806778 38.43122959 51.35809746 59.74309337 114.94431386 59.74309336 178.87990429 0 64.28496534-21.31186377 127.87118174-59.74309336 178.8799043-38.43122959 51.00872256-93.63245009 89.78932705-155.12241621 107.25806777-7.68624609 2.44562343-15.37249219 4.19249795-23.40811319 5.93937159-8.035621 1.39749961-15.72186621 2.79499834-23.7574872 3.84312304l-5.93937158 0.69874981-5.93937159 0.3493749c-3.84312305 0.3493749-8.03562099 0.69874981-11.87874404 0.69874893l-11.87874317 0.3493749L353.82871103 809.32320635 134.77070352 809.67258125l0 16.76999092 219.05800751-0.3493749 123.32930976 0 12.57749297-0.34937402c4.19249795 0 8.38499589-0.69874981 12.57749297-0.69874981l6.28874649-0.3493749 6.28874736-0.69874981c8.38499589-1.04812471 16.76999092-2.44562343 25.15498594-3.84312304 8.38499589-1.74687364 16.42061602-3.84312305 24.45623701-6.28874649 64.98371513-18.51686542 123.32930887-59.39371846 163.8567879-113.54681426 20.26373906-27.25123535 36.33498018-57.29746905 46.8162246-89.43995215 5.24062178-16.07124112 9.43311972-32.49185801 12.22811807-49.26184893 2.44562343-16.76999092 3.84312305-33.53998185 4.19249794-50.65934765 0.3493749-16.42061602-1.04812471-33.19060693-3.84312304-49.96059873z" fill="#2c2c2c" p-id="850"></path><path d="M702.1553999 342.55845635c-36.33498019-48.21372422-88.39182743-84.8980793-146.38804629-101.31869619-7.33687119-2.09624854-14.67374238-3.84312305-22.01061358-5.58999668-7.33687119-1.39749961-14.67374238-2.79499834-22.3599876-3.49374815l-5.58999755-0.6987498-5.58999668-0.34937491c-3.84312305-0.3493749-7.68624609-0.69874981-11.17999424-0.6987498l-11.17999424-0.34937401L354.87683574 230.05976679l-219.75675732 0.34937404L135.12007842 247.17913261l219.05800752-0.34937491 122.97993485 1e-8 10.83061846 0.34937491c3.49374815 0 6.98749628 0.34937489 10.48124443 0.69874892l5.24062266 0.34937491 5.24062178 0.6987498c6.98749628 0.69874981 13.97499257 2.09624854 20.96248887 3.14437325 6.98749628 1.74687364 13.97499258 3.14437325 20.61311396 5.24062265 54.5024707 15.37249219 103.41494473 49.96059785 137.65367637 95.37932373 34.23873164 45.41872588 53.10497197 101.66807021 53.10497198 158.96554014s-18.86624033 113.19743935-53.10497198 158.96554013c-34.23873164 45.41872588-83.15120567 79.65745751-137.65367637 95.37932374-6.63812138 2.09624854-13.62561769 3.49374815-20.61311396 5.24062177-6.98749628 1.04812471-13.97499258 2.44562343-20.96248887 3.14437324l-5.24062178 0.69874981-5.24062266 0.3493749c-3.49374815 0.34937489-6.98749628 0.69874981-10.83061845 0.69874981l-10.83061934 0.34937489L353.47933613 776.48197433l-219.05800752 0.34937489 0 16.76999091 219.05800752-0.3493749L476.80864588 793.25196523l11.52936827-0.3493749c3.84312304 0 7.68624609-0.3493749 11.17999424-0.69874981l5.58999669-0.34937489 5.58999757-0.69874893c7.68624609-0.69874981 15.0231173-2.09624854 22.35998758-3.49374815 7.33687119-1.74687364 14.67374238-3.14437324 22.01061358-5.58999756 57.99621885-16.42061602 110.05306612-53.10497197 146.38804628-101.31869531 36.33498018-48.56309913 56.59872012-108.30619248 56.24934522-169.09740966 0.69874981-60.79121719-19.21561435-120.53431055-55.55059541-169.09740967z" fill="#2c2c2c" p-id="851"></path><path d="M675.25353946 362.82219541c-32.1424831-42.62372754-77.91058301-74.76620977-128.91930646-89.43995216-6.28874649-2.09624854-12.92686787-3.49374815-19.21561435-4.89124775-6.63812138-1.04812471-12.92686787-2.44562343-19.56498926-3.14437323l-4.89124774-0.69874981-4.89124688-0.34937402c-3.49374815 0-6.63812138-0.69874981-10.13186954-0.69874981l-10.13187041-0.3493749L354.52746084 263.25037373l-219.40738242 0.69874981 0 16.76999091 219.05800752-0.3493749 122.97993485 0 9.43311974 0.3493749c3.14437325 0 6.28874649 0.3493749 9.43311972 0.69874981l4.54187285 0.3493749 4.54187198 0.69874893c6.28874649 0.69874981 12.22811807 1.74687364 18.51686542 2.79499922 5.93937158 1.39749961 12.22811807 2.79499834 17.81811563 4.54187196C588.95796055 303.07910205 631.93106298 333.12533662 661.97729667 372.95406494c30.04623369 39.82872833 46.11747568 88.74120234 46.11747481 138.70180108 0 49.96059785-16.42061602 98.87307187-46.1174748 138.70180019-30.04623369 39.82872833-72.66996123 69.87496289-120.18493565 83.15120567-5.93937158 1.74687364-11.87874404 3.14437324-17.81811563 4.54187283-5.93937158 1.04812471-12.22811807 2.44562343-18.51686542 2.79499836l-4.54187198 0.6987498-4.54187284 0.3493749c-3.14437325 0-6.28874649 0.69874981-9.43311973 0.69874981l-9.43312061 0.3493749L354.17808594 742.94199248 134.77070352 743.29136739l0 16.76999091 219.05800751-0.3493749 123.32930976 0 10.13186954-0.34937491c3.49374815 0 6.63812138-0.3493749 10.13186952-0.6987498l4.89124688-0.3493749 4.89124776-0.69874981c6.63812138-0.69874981 13.27624277-2.09624854 19.56498926-3.14437323 6.28874649-1.39749961 12.92686787-2.79499834 19.21561522-4.89124688 51.00872256-14.32436748 97.12619824-46.81622461 128.91930557-89.43995215C707.39602256 617.86580908 724.86476329 565.11021201 724.86476329 511.65586602s-17.46874071-106.20994307-49.61122383-148.83367061z" fill="#2c2c2c" p-id="852"></path><path d="M903.74466758 442.47965292c-3.49374815-23.05873739-9.43311972-45.41872588-16.76999093-67.77871347-14.32436748-44.02122627-36.68435508-85.59682911-64.2849662-122.63055995-13.97499258-18.51686542-29.34748388-35.98560615-46.11747481-52.05684728-16.76999092-16.07124112-34.58810654-30.7449835-53.80372178-44.02122626-19.21561435-13.27624277-39.1299794-24.80561191-60.09246739-34.93748145-20.96248886-10.13186954-42.97310244-18.16749052-64.98371513-24.80561191-11.17999424-3.49374815-22.35998848-5.93937158-33.88935762-8.38499502-11.52936915-2.09624854-22.7093625-4.19249795-34.23873163-5.58999756l-8.73436992-1.04812383-8.73437082-0.69874981c-5.93937158-0.3493749-11.52936914-1.04812471-17.46874071-1.04812471l-17.46873985-0.3493749L353.47933613 79.12984677 135.12007842 79.47922169l0 16.76999091 219.05800752-0.3493749 123.67868378 0 16.76999092 0.3493749c5.58999668 0 11.17999424 0.69874981 16.76999179 1.04812471l8.38499504 0.6987498 8.38499589 1.04812471c11.17999424 1.04812471 22.01061357 3.14437325 33.19060693 5.24062177 10.83061934 2.44562343 21.66123867 4.89124775 32.491858 8.03562099 21.31186377 6.28874649 42.27435263 13.97499258 62.53809171 23.75748722 20.26373906 9.78249463 39.4793543 20.96248886 57.64684394 33.53998184 18.51686543 12.57749297 35.63623125 26.90186045 51.70747236 42.27435263 16.07124112 15.37249219 30.7449835 32.1424831 44.37060118 49.96059785 26.55248555 35.63623125 47.86434932 75.46495957 61.83934189 118.08868711 6.98749628 21.31186377 12.57749297 42.97310243 16.07124111 64.98371514 3.49374815 22.01061357 5.24062178 44.37060117 5.24062266 66.38121476 0 22.35998847-1.74687364 44.37060117-5.24062266 66.38121473-3.49374815 22.01061357-9.08374482 43.67185136-16.07124111 64.98371513-13.97499258 42.62372754-35.28685635 82.45245586-61.83934189 118.08868624-13.27624277 17.81811563-28.29936006 34.58810654-44.37060118 49.96059873s-33.19060693 29.69685879-51.70747236 42.27435263c-18.51686543 12.57749297-37.73247979 23.75748721-57.64684394 33.53998184-20.26373906 9.78249463-41.22622793 17.46874071-62.53809171 23.7574872-10.83061934 3.14437324-21.66123867 5.58999668-32.491858 8.03562101-10.83061934 2.09624854-22.01061357 4.19249795-33.19060693 5.24062177l-8.38499589 1.04812472-8.38499504 0.69874979c-5.58999668 0.3493749-11.17999424 1.04812471-16.76999179 1.04812383l-16.76999092 0.3493749L354.52746083 926.71314365l-219.0580075 0.34937491 0 16.76999091 219.05800751-0.3493749 123.32930888 0 17.11936583-0.3493749c5.58999668 0 11.52936914-0.69874981 17.46874071-1.04812383l8.73437081-0.6987498 8.73436992-1.04812471c11.52936915-1.39749961 23.05873739-3.49374815 34.23873164-5.58999668 11.17999424-2.44562343 22.7093625-5.24062178 33.88935674-8.3849959 22.35998848-6.63812138 44.02122627-14.67374238 64.98371601-24.80561103 20.96248886-10.13186954 41.22622793-21.66123867 60.09246738-34.93748145 19.21561435-13.27624277 37.03372997-27.94998516 53.80372179-44.02122715 16.76999092-16.07124112 32.1424831-33.53998185 46.1174748-52.05684639 27.60061026-37.03372998 49.96059785-78.60933281 64.28496533-122.97993486 7.33687119-22.01061357 12.92686787-44.71997607 16.76999179-67.77871347 3.49374815-23.05873739 5.58999668-46.11747568 5.58999668-69.17621309-0.34937489-22.01061357-2.09624854-45.41872588-5.93937157-68.12808838z" fill="#2c2c2c" p-id="853"></path><path d="M463.88177714 910.64190254l13.62561767-1e-8 16.071242-0.3493749c5.24062178 0 10.83061934-0.69874981 16.07124112-1.0481247l8.035621-0.69874892 8.03562011-1.04812471c10.48124443-1.04812471 21.31186377-3.14437324 31.7931082-4.89124776 10.48124443-2.44562343 20.96248886-4.54187285 31.0943584-7.68624609 20.61311396-5.93937158 40.52747813-13.62561767 60.09246827-22.7093625 19.21561435-9.43311972 37.73247979-19.91436416 55.5505954-32.1424831 17.81811563-12.22811807 34.23873164-25.85373575 49.61122296-40.52747813 15.37249219-14.67374238 29.69685879-30.74498349 42.62372753-47.86434932 25.50436172-34.23873164 46.11747569-72.66996123 59.39371846-113.19743935 6.63812138-20.26373906 12.22811807-41.22622793 15.37249131-62.1887168 3.49374815-21.31186377 4.89124775-42.62372754 5.24062265-63.93559043 0-21.31186377-1.74687364-42.62372754-5.24062265-63.93559131-3.14437324-21.31186377-8.73436992-41.92497773-15.37249131-62.1887168-13.27624277-40.87685302-33.88935674-78.95870771-59.39371846-113.19743936-12.92686787-17.11936582-27.25123535-33.19060693-42.62372753-47.86434931-15.37249219-14.67374238-31.7931082-28.64873497-49.61122296-40.52747812-17.46874071-12.22811807-36.33498018-23.0587374-55.5505954-32.14248311-19.21561436-9.08374482-39.4793543-16.76999092-60.09246827-22.7093625-10.13186953-3.14437324-20.61311396-5.58999668-31.0943584-7.68624609-10.48124442-2.09624854-20.96248886-3.84312304-31.7931082-4.89124775l-8.03562012-1.04812384-8.03562099-0.6987498c-5.24062178-0.34937489-10.48124443-1.04812471-16.07124112-1.04812472l-16.07124199-0.34937488L354.17808594 114.06732822 135.12007842 113.01920441l0 16.7699909 219.05800752-0.34937492 123.32930888 0 15.37249219 0.34937492c5.24062178 0 10.13186953 0.69874981 15.37249219 1.04812383l7.68624521 0.6987498 7.68624609 1.04812472c10.13186953 1.04812471 20.26373906 3.14437324 30.3956086 4.89124687 10.13186953 2.09624854 19.91436416 4.54187285 29.69685966 7.33687119 78.95870771 22.7093625 149.53242041 71.97121143 198.79426846 137.65367635 24.45623701 32.84123204 44.02122627 69.52558799 56.94809413 108.6555674 6.28874649 19.56498926 11.52936914 39.4793543 14.6737424 59.74309248 3.14437324 20.26373906 4.89124775 40.87685302 4.89124775 61.14059297 0 20.61311397-1.74687364 40.87685302-4.89124775 61.14059208-3.14437324 20.26373906-8.38499589 40.17810323-14.6737424 59.74309336-12.92686787 39.1299794-32.49185801 75.81433447-56.94809412 108.65556651-49.26184893 65.33309003-119.83556074 114.94431386-198.79426847 137.65367637-9.78249463 3.14437324-19.91436416 5.24062178-29.69685966 7.33687119-10.13186953 1.74687364-20.26373906 3.84312305-30.3956086 4.89124687l-7.68624609 1.04812471-7.68624521 0.69874981c-5.24062178 0.34937489-10.13186953 1.04812471-15.37249219 1.0481247l-15.37249219 0.34937491L354.52746084 894.57066144l-219.05800752 0.34937401 0 16.76999179 219.05800752-0.3493749 109.3543163-0.69874981z" fill="#2c2c2c" p-id="854"></path><path d="M463.88177714 877.1019207l13.62561768 0 14.67374237-0.3493749c4.89124775 0 9.78249463-0.69874981 14.6737424-1.04812471l7.3368712-0.69874982 7.33687118-1.0481238c9.78249463-1.04812471 19.21561435-2.79499834 28.99810898-4.54187286 9.43311972-2.09624854 19.21561435-4.19249795 28.64873496-6.98749628 75.46495957-21.66123867 142.89429903-68.82683819 190.05989853-131.36492989 23.4081123-31.4437333 42.27435263-66.38121474 54.50247072-103.76431963 6.28874649-18.51686542 11.17999424-37.73247979 13.97499257-56.94809414 3.14437325-19.21561435 4.54187285-38.7806045 4.89124688-58.69496865 0-19.56498925-1.74687364-39.1299794-4.89124688-58.69496865-3.14437325-19.21561435-8.03562099-38.43122959-13.97499257-56.94809503-12.22811807-37.38310487-31.0943584-72.32058633-54.50247072-103.76431963-47.16559951-62.53809169-114.59493895-110.05306612-190.05989852-131.364929-9.43311972-2.79499834-18.86624033-4.89124775-28.64873497-6.98749629-9.78249463-1.74687364-19.21561435-3.49374815-28.99810898-4.54187284l-7.33687118-1.04812471-7.3368712-0.69874981c-4.89124775-0.3493749-9.78249463-1.04812471-14.67374238-1.04812383l-14.67374239-0.34937489L354.17808594 146.20981134l-219.05800752 0.34937489L135.12007842 163.32917714l219.05800752-0.3493749 123.32930888 0 13.97499258 0.3493749c4.54187285 0 9.43311972 0.69874981 13.97499258 1.04812471l6.98749628 0.69874893 6.98749631 1.04812471c9.43311972 1.04812471 18.51686542 2.79499834 27.60061024 4.54187285 9.08374482 2.09624854 18.16749052 4.19249795 27.25123536 6.98749629C646.2554296 198.26665859 710.8897707 243.33600957 755.60974677 303.07910205c22.35998848 30.04623369 40.17810323 63.23684151 51.70747237 98.87307274 5.93937158 17.81811563 10.48124443 35.98560615 13.27624277 54.50247071 2.79499834 18.51686542 4.54187285 37.03372997 4.54187286 55.89997032s-1.74687364 37.38310487-4.54187286 55.89996944c-2.79499834 18.51686542-7.68624609 36.68435508-13.27624277 54.50247157-11.52936914 35.63623126-29.69685879 68.82683819-51.70747236 98.87307188-45.06935097 59.74309337-109.35431631 104.81244434-181.32552863 125.42555743-9.08374482 2.79499834-18.16749052 4.89124775-27.25123534 6.98749628-9.08374482 1.74687364-18.51686542 3.49374815-27.60061024 4.54187285l-6.98749631 1.04812471-6.98749628 0.69874981c-4.54187285 0.34937489-9.43311972 1.04812471-13.97499259 1.04812383l-13.97499257 0.3493749L354.17808594 861.72942852 135.12007842 862.07880342l0 16.76999092 219.05800752-0.34937491 109.7036912-1.39749873z" fill="#2c2c2c" p-id="855"></path><path d="M463.88177714 843.56193799l13.62561768 0 13.27624365-0.3493749c4.54187285 0 8.73436992-0.69874981 13.27624278-0.69874894l6.63812138-0.34937489 6.63812139-0.69874981c8.73436992-1.04812471 17.46874071-2.79499834 26.20311065-4.19249794 8.73436993-2.09624854 17.46874071-3.84312304 25.8537366-6.63812139 68.47746327-19.56498926 129.96743028-62.5380917 172.59115783-119.48618585 21.31186377-28.64873497 38.43122959-60.44184229 49.26184804-94.3311999 5.58999668-16.76999092 10.13186953-34.23873165 12.92686875-51.70747236 2.79499834-17.46874071 4.19249795-35.28685635 4.19249708-53.10497109s-1.39749961-35.63623125-4.19249708-53.10497197c-2.79499834-17.46874071-7.33687119-34.93748144-12.92686875-51.70747237-11.17999424-33.88935674-28.29936006-65.68246494-49.26184804-94.3311999-42.97310244-56.94809414-104.11369453-99.92119658-172.59115783-119.48618584-8.38499589-2.44562343-17.11936582-4.54187286-25.8537366-6.63812139-8.73436993-1.39749961-17.46874071-3.14437325-26.20311065-4.19249794l-6.63812139-0.69874893-6.63812138-0.3493749c-4.54187285-0.34937489-8.73436992-0.69874981-13.27624278-0.69874981l-13.27624365-0.3493749L354.17808594 180.44854297 135.12007842 180.09916807l0 16.76999091 219.05800752-0.34937489 123.32930888 0 12.57749386 0.34937489c4.19249795 0 8.38499589 0.69874981 12.57749296 0.69874981l6.28874648 0.3493749 6.28874649 0.69874979c8.38499589 1.04812471 16.76999092 2.44562343 25.15498681 3.84312306 8.38499589 1.74687364 16.42061602 3.84312305 24.45623703 6.28874648 64.98371513 18.51686542 123.32930887 59.39371846 163.85678788 113.54681427 20.26373906 27.25123535 36.33498018 57.29746905 46.81622461 89.43995214 5.24062178 16.07124112 9.43311972 32.49185801 12.22811806 49.26184805 2.44562343 16.76999092 3.84312305 33.53998185 4.19249795 50.65934854 0 16.76999092-1.39749961 33.88935674-4.19249795 50.65934765-2.44562343 16.76999092-6.98749628 33.19060693-12.22811806 49.26184893-10.48124443 32.14248311-26.90186045 62.1887168-46.81622461 89.43995214-40.52747813 54.1530958-98.87307187 95.02994884-163.85678789 113.54681427-8.03562099 2.44562343-16.42061602 4.19249795-24.45623702 6.28874648-8.38499589 1.39749961-16.76999092 3.14437324-25.15498681 3.84312304l-6.28874649 0.69874981-6.28874648 0.34937491c-4.19249795 0.3493749-8.38499589 0.69874981-12.57749296 0.69874892l-12.57749386 0.3493749L354.17808594 826.79194707 135.12007842 827.14132197l0 16.76999092 219.05800752-0.3493749 109.7036912 0z" fill="#2c2c2c" p-id="856"></path><path d="M463.53240311 810.02195615l13.62561768 0 11.87874317-0.34937491c4.19249795 0 8.03562099-0.69874981 11.87874404-0.69874979l5.93937159-0.34937403 5.93937158-0.6987498c8.03562099-0.69874981 15.72186621-2.44562343 23.7574872-3.84312304 7.68624609-1.74687364 15.72186621-3.49374815 23.40811319-5.93937159 61.48996699-17.46874071 116.6911875-56.24934521 155.12241621-107.25806778 38.43122959-51.35809746 59.74309337-114.94431386 59.74309336-178.87990429 0-64.28496534-21.31186377-127.87118174-59.74309336-178.8799043-38.43122959-51.00872256-93.63245009-89.78932705-155.12241621-107.25806777-7.68624609-2.44562343-15.37249219-4.19249795-23.40811319-5.93937247-8.035621-1.39749961-15.72186621-2.79499834-23.7574872-3.84312216l-5.93937158-0.69874981-5.93937159-0.3493749c-3.84312305-0.3493749-8.03562099-0.69874981-11.87874404-0.69874981l-11.87874317-0.3493749L354.17808594 213.98852481 135.12007842 213.6391499l0 16.76999093 219.05800752-0.34937404 122.97993485 0 11.17999336 0.34937404c3.84312304 0 7.68624609 0.3493749 11.17999424 0.6987498l5.58999668 0.3493749 5.58999756 0.6987498c7.68624609 0.69874981 15.0231173 2.09624854 22.3599876 3.49374815 7.33687119 1.74687364 14.67374238 3.14437324 22.01061358 5.58999668 57.99621885 16.42061602 110.05306612 53.10497197 146.38804628 101.31869619 36.33498018 48.56309913 56.59872012 108.30619248 56.24934522 169.09740967 0 60.79121719-19.91436416 120.53431055-56.24934522 169.09740966-36.33498019 48.21372422-88.39182743 84.8980793-146.38804628 101.31869531-7.33687119 2.09624854-14.67374238 3.84312305-22.01061358 5.58999756-7.33687119 1.39749961-14.67374238 2.79499834-22.35998758 3.49374815l-5.58999757 0.69874893-5.58999669 0.34937489c-3.84312305 0.3493749-7.68624609 0.69874981-11.17999424 0.69874981l-11.52936827 0.3493749L353.47933613 793.25196523l-219.05800752 0.3493749 0 16.76999092 219.05800752-0.3493749 110.053067 0z" fill="#2c2c2c" p-id="857"></path><path d="M463.53240311 776.48197433l13.62561768-2e-8 10.83061846-0.34937489c3.49374815 0 6.98749628-0.34937489 10.83061934-0.69874981l5.24062266-0.3493749 5.24062177-0.69874981c6.98749628-0.69874981 13.97499257-2.09624854 20.96248888-3.14437324 6.98749628-1.74687364 13.97499258-3.14437325 20.61311396-5.24062177 54.5024707-15.37249219 103.41494473-49.96059785 137.65367636-95.37932374 34.23873164-45.41872588 53.10497197-101.66807021 53.10497198-158.96554013s-18.86624033-113.19743935-53.10497198-158.96554014c-34.23873164-45.41872588-83.15120567-79.65745751-137.65367636-95.37932373-6.63812138-2.09624854-13.62561769-3.49374815-20.61311396-5.24062265-6.98749628-1.04812471-13.97499258-2.44562343-20.96248887-3.14437325l-5.24062178-0.6987498-5.24062266-0.34937491c-3.49374815-0.34937489-6.98749628-0.69874981-10.48124444-0.69874892l-10.83061934-0.34937491L354.52746084 246.82975771 135.12007842 247.17913261l0 16.76999093 219.05800752-0.3493749 122.97993485 0 10.13186954 0.3493749c3.49374815 0 6.63812138 0.3493749 10.13186953 0.69874893l4.89124687 0.3493749 4.89124776 0.6987498c6.63812138 0.69874981 13.27624277 2.09624854 19.56498926 3.14437324 6.28874649 1.39749961 12.92686787 2.79499834 19.21561523 4.89124776 51.00872256 14.32436748 97.12619824 46.81622461 128.91930556 89.43995214 32.1424831 42.62372754 49.61122384 95.37932373 49.61122383 148.83367061s-17.46874071 106.20994307-49.61122383 148.83366973c-32.1424831 42.62372754-77.91058301 74.76620977-128.91930557 89.43995214-6.28874649 2.09624854-12.92686787 3.49374815-19.21561522 4.89124776-6.63812138 1.04812471-12.92686787 2.44562343-19.56498926 3.14437323l-4.89124776 0.69874981-4.89124687 0.3493749c-3.49374815 0-6.63812138 0.69874981-10.13186953 0.69874981l-10.13186954 0.34937489L353.82871103 760.41073321 134.77070352 760.76010723l0 16.76999179 219.05800751-0.3493749 109.70369208-0.69874981z" fill="#2c2c2c" p-id="858"></path></svg>