<?xml version="1.0" standalone="no"?><!DOCTYPE svg PUBLIC "-//W3C//DTD SVG 1.1//EN" "http://www.w3.org/Graphics/SVG/1.1/DTD/svg11.dtd"><svg t="1649995675746" class="icon" viewBox="0 0 1024 1024" version="1.1" xmlns="http://www.w3.org/2000/svg" p-id="852" xmlns:xlink="http://www.w3.org/1999/xlink" width="16" height="16"><defs><style type="text/css">@font-face { font-family: feedback-iconfont; src: url("//at.alicdn.com/t/font_1031158_u69w8yhxdu.woff2?t=1630033759944") format("woff2"), url("//at.alicdn.com/t/font_1031158_u69w8yhxdu.woff?t=1630033759944") format("woff"), url("//at.alicdn.com/t/font_1031158_u69w8yhxdu.ttf?t=1630033759944") format("truetype"); }
</style></defs><path d="M512 12.83413333A499.16586667 499.16586667 0 1 0 1011.16586667 512 499.16586667 499.16586667 0 0 0 512 12.83413333z m-112.13937778 522.10346667l-19.11466667 76.09457778 26.94257778-23.66577778s61.34897778 69.72302222 72.81777778 87.01724445 1.6384 78.46115555 1.6384 78.46115555l-105.22168889-128.70542222s-33.13208889 115.05208889-77.91502222 141.26648889a111.04711111 111.04711111 0 0 1-91.02222222 7.46382222 389.21102222 389.21102222 0 0 0 97.21173333-102.12693334 435.63235555 435.63235555 0 0 0 44.96497778-135.80515555h-130.88995556s10.01244445-46.05724445 27.48871112-47.33155555 103.40124445 0 103.40124444 0l-2.00248889-141.99466667-49.152 2.54862222a109.22666667 109.22666667 0 0 1-36.40888889 54.61333333c-27.48871111 19.84284445-43.69066667 12.37902222-43.69066666 12.37902222s48.60586667-134.53084445 63.5335111-160.74524444 57.344-28.58097778 57.344-28.58097778l-26.2144 75.91253334h168.20906667c20.02488889 0 21.11715555 46.23928889 21.11715556 46.23928888h-103.03715556v139.44604445s69.72302222-2.54862222 92.29653333 0 22.39146667 47.33155555 22.39146667 47.33155555z m374.82951111 182.04444445h-104.12942222l-74.09208889 52.61084444-15.47377777-52.61084444h-42.05226667v-418.70222223h236.65777777z" fill="#49C0FB" p-id="853"></path><path d="M615.40124445 716.43591111l62.44124444-47.14951111h48.96995556V344.33706667h-137.80764445v324.94933333h12.74311111l13.65333334 47.14951111z" fill="#49C0FB" p-id="854"></path></svg>